{"title":"Sicario 2015 BRRip x264 AAC-SSN","uid":13077926,"size":1462923215,"categoryP":"video","categoryS":"movies","magnet":"?xt=urn:btih:bb148ff589fa5e1753aef46b1e73c6e3eb9c8f73&amp;dn=Sicario+2015+BRRip+x264+AAC-SSN&amp;tr=udp%3A%2F%2Ftracker.leechers-paradise.org%3A6969&amp;tr=udp%3A%2F%2Fzer0day.ch%3A1337&amp;tr=udp%3A%2F%2Fopen.demonii.com%3A1337&amp;tr=udp%3A%2F%2Ftracker.coppersurfer.tk%3A6969&amp;tr=udp%3A%2F%2Fexodus.desync.com%3A6969","seeders":0,"leechers":0,"uploader":"TvTeam","files":3,"time":1450870821,"description":"------------------------------------------------------------------------\r\n\r  https://www.torrenting.com\r\n\r\nSign up is OPEN - for time being. Come and have fun.\r\n\r\n------------------------------------------------------------------------General\r\nComplete name                            : Sicario 2015 BRRip x264 AAC-SSN.mkv\r\nFormat                                   : Matroska\r\nFormat version                           : Version 4 / Version 2\r\nFile size                                : 1.36 GiB\r\nDuration                                 : 2h 1mn\r\nOverall bit rate                         : 1 608 Kbps\r\nEncoded date                             : UTC 2015-12-23 09:53:36\r\nWriting application                      : mkvmerge v8.2.0 ('World of Adventure') 64bit\r\nWriting library                          : libebml v1.3.1 + libmatroska v1.4.2\r\n\r\nVideo\r\nID                                       : 1\r\nFormat                                   : AVC\r\nFormat/Info                              : Advanced Video Codec\r\nFormat profile                           :   \r\nFormat settings, CABAC                   : Yes\r\nFormat settings, ReFrames                : 5 frames\r\nCodec ID                                 : V_MPEG4/ISO/AVC\r\nDuration                                 : 2h 1mn\r\nBit rate                                 : 1 282 Kbps\r\nWidth                                    : 900 pixels\r\nHeight                                   : 376 pixels\r\nDisplay aspect ratio                     : 2.40:1\r\nFrame rate mode                          : Constant\r\nFrame rate                               : 23.976 (24000/1001) fps\r\nColor space                              : YUV\r\nChroma subsampling                       : 4:2:0\r\nBit depth                                : 8 bits\r\nScan type                                : Progressive\r\nBits/(Pixel*Frame)                       : 0.190\r\nStream size                              : 1.09 GiB (80%)\r\nWriting library                          : x264 core 148 r2638 7599210\r\nEncoding settings                        : cabac=1 / ref=5 / deblock=1:0:0 / analyse=0x3:0x112 / me=dia / subme=1 / psy=0 / mixed_ref=1 / me_range=16 / chroma_me=1 / trellis=0 / 8x8dct=1 / cqm=0 / deadzone=22,11 / fast_pskip=1 / chroma_qp_offset=1 / threads=6 / lookahead_threads=2 / sliced_threads=0 / nr=0 / decimate=1 / interlaced=0 / bluray_compat=0 / constrained_intra=0 / bframes=10 / b_pyramid=2 / b_adapt=2 / b_bias=23 / direct=3 / weightb=1 / open_gop=1 / weightp=2 / keyint=250 / keyint_min=1 / scenecut=40 / intra_refresh=0 / rc_lookahead=100 / rc=2pass / mbtree=1 / bitrate=1282 / ratetol=3.0 / qcomp=0.80 / qpmin=10 / qpmax=40 / qpstep=3 / cplxblur=20.0 / qblur=0.5 / vbv_maxrate=50000 / vbv_bufsize=50000 / nal_hrd=none / filler=0 / ip_ratio=1.30 / aq=1:1.00\r\nLanguage                                 : English\r\nDefault                                  : Yes\r\nForced                                   : No\r\n\r\nAudio\r\nID                                       : 2\r\nFormat                                   : AAC\r\nFormat/Info                              : Advanced Audio Codec\r\nFormat profile                           : LC\r\nCodec ID                                 : A_AAC\r\nDuration                                 : 2h 1mn\r\nBit rate                                 : 325 Kbps\r\nChannel(s)                               : 6 channels\r\nChannel positions                        : Front: L C R, Side: L R, LFE\r\nSampling rate                            : 32.0 KHz\r\nFrame rate                               : 31.250 fps (1024 spf)\r\nCompression mode                         : Lossy\r\nStream size                              : 282 MiB (20%)\r\nDefault                                  : Yes\r\nForced                                   : No","torrent":{"xt":"urn:btih:bb148ff589fa5e1753aef46b1e73c6e3eb9c8f73","amp;dn":"Sicario+2015+BRRip+x264+AAC-SSN","amp;tr":["udp%3A%2F%2Ftracker.leechers-paradise.org%3A6969","udp%3A%2F%2Fzer0day.ch%3A1337","udp%3A%2F%2Fopen.demonii.com%3A1337","udp%3A%2F%2Ftracker.coppersurfer.tk%3A6969","udp%3A%2F%2Fexodus.desync.com%3A6969"],"infoHash":"bb148ff589fa5e1753aef46b1e73c6e3eb9c8f73","infoHashBuffer":{"type":"Buffer","data":[187,20,143,245,137,250,94,23,83,174,244,107,30,115,198,227,235,156,143,115]},"announce":[],"urlList":[]}}